<!DOCTYPE svg PUBLIC "-//W3C//DTD SVG 1.1//EN" "http://www.w3.org/Graphics/SVG/1.1/DTD/svg11.dtd" [
	<!ENTITY ns_flows "http://ns.adobe.com/Flows/1.0/">
]><svg xmlns="http://www.w3.org/2000/svg" width="422" height="128" overflow="visible"><path d="M184.006 47v-27.25h6.25v81.375s-1.913 2.204-5.5 3.875c-2.75 1.281-5.418 2-8.25 2.5-2.834.5-5.125.75-6.875.75-2.334 0-4.5-.459-6.5-1.375s-3.75-2.166-5.25-3.75c-1.5-1.582-2.688-3.457-3.562-5.625-.875-2.166-1.312-4.457-1.312-6.875v-29.5c0-2.416.438-4.688 1.312-6.812s2.062-4 3.562-5.625 3.25-2.895 5.25-3.812c2-.916 4.166-1.375 6.5-1.375 1.416 0 3.332.146 5.75.438 2.416.291 5.291 1.311 8.625 3.061zm-.125 50.375v-43.125c-2.918-1.916-5.668-3.125-8.25-3.625-2.584-.5-4.584-.75-6-.75-2.918 0-5.375 1.062-7.375 3.188s-3 4.688-3 7.688v30.375c0 1.5.27 2.896.812 4.188.541 1.293 1.27 2.418 2.188 3.375.916.959 2 1.73 3.25 2.312 1.25.584 2.582.875 4 .875.75 0 1.875-.104 3.375-.312 1.5-.207 3.02-.5 4.562-.875 1.541-.375 2.938-.832 4.188-1.375 1.25-.543 2-1.189 2.25-1.939zM200.254 61.125c0-2.5.438-4.832 1.312-7 .875-2.166 2.082-4.041 3.625-5.625 1.541-1.582 3.332-2.832 5.375-3.75 2.041-.916 4.27-1.375 6.688-1.375h4.25c2.332 0 4.541.459 6.625 1.375 2.082.918 3.916 2.168 5.5 3.75 1.582 1.584 2.812 3.459 3.688 5.625.875 2.168 1.312 4.5 1.312 7v4.125c0 3.5-.625 6.438-1.875 8.812s-2.959 4.312-5.125 5.812c-2.168 1.5-4.688 2.562-7.562 3.188s-5.938.938-9.188.938c-1.334 0-2.668-.041-4-.125-1.334-.082-2.709-.207-4.125-.375v7.5c.582 3.334 2.145 5.98 4.688 7.938 2.541 1.959 5.438 2.938 8.688 2.938.332 0 1.395-.188 3.188-.562l5.688-1.188c2.332-.5 4.916-1.082 7.75-1.75l1.5 6.625c-3.084.668-5.875 1.209-8.375 1.625-2.168.418-4.23.791-6.188 1.125-1.959.332-3.146.5-3.562.5-2.668 0-5.209-.48-7.625-1.438-2.418-.957-4.543-2.312-6.375-4.062-1.834-1.75-3.271-3.812-4.312-6.188-1.043-2.375-1.562-4.979-1.562-7.812v-27.626zm21.25 15.875h.25c1.5 0 2.875-.312 4.125-.938s2.332-1.457 3.25-2.5c.916-1.041 1.645-2.229 2.188-3.562.541-1.332.812-2.75.812-4.25v-5.25c0-2-.375-3.688-1.125-5.062s-1.73-2.479-2.938-3.312c-1.209-.832-2.625-1.438-4.25-1.812s-3.312-.562-5.062-.562c-1.584 0-3.105.25-4.562.75-1.459.5-2.73 1.209-3.812 2.125-1.084.918-1.959 2.043-2.625 3.375-.668 1.334-1 2.834-1 4.5v16.375l14.749.123zM252.379 88.625c0 2 .354 3.812 1.062 5.438.707 1.625 1.688 3.021 2.938 4.188 1.25 1.168 2.688 2.062 4.312 2.688s3.354.938 5.188.938c.832 0 1.875-.104 3.125-.312 1.25-.207 2.457-.438 3.625-.688 1.416-.332 2.875-.707 4.375-1.125l2 5.75c-1.668.584-3.25 1.043-4.75 1.375-1.334.332-2.771.625-4.312.875-1.543.25-2.896.375-4.062.375-2.75 0-5.312-.48-7.688-1.438s-4.459-2.312-6.25-4.062c-1.793-1.75-3.209-3.812-4.25-6.188-1.043-2.375-1.562-4.979-1.562-7.812v-26.127c0-2.832.52-5.438 1.562-7.812 1.041-2.375 2.438-4.395 4.188-6.062 1.75-1.666 3.812-2.979 6.188-3.938 2.375-.957 4.938-1.438 7.688-1.438 1.332 0 2.729.168 4.188.5 1.457.334 2.812.709 4.062 1.125 1.5.418 2.957.918 4.375 1.5l-1.5 5.375c-1.25-.416-2.543-.791-3.875-1.125-1.168-.332-2.375-.625-3.625-.875s-2.459-.375-3.625-.375c-3.668 0-6.812 1.188-9.438 3.562s-3.938 5.562-3.938 9.562v26.126zM325.752 42.375v48.75c0 2.418-.438 4.668-1.312 6.75-.875 2.084-2.062 3.896-3.562 5.438-1.5 1.543-3.25 2.75-5.25 3.625s-4.168 1.312-6.5 1.312h-4.125c-2.334 0-4.5-.438-6.5-1.312s-3.75-2.082-5.25-3.625c-1.5-1.541-2.668-3.354-3.5-5.438-.834-2.082-1.25-4.332-1.25-6.75v-48.75c0-2.416.438-4.666 1.312-6.75.875-2.082 2.062-3.895 3.562-5.438 1.5-1.541 3.25-2.75 5.25-3.625s4.166-1.312 6.5-1.312h4.125c2.25 0 4.375.438 6.375 1.312s3.75 2.084 5.25 3.625c1.5 1.543 2.688 3.355 3.562 5.438.876 2.084 1.313 4.334 1.313 6.75zm-20.625 59.25h4c2.832 0 5.25-1.062 7.25-3.188s3-4.688 3-7.688v-48.374c0-3.332-1.168-5.895-3.5-7.688-2.334-1.791-5.043-2.688-8.125-2.688-1.75 0-3.396.168-4.938.5-1.543.334-2.896.918-4.062 1.75-1.168.834-2.105 1.896-2.812 3.188-.709 1.293-1.062 2.938-1.062 4.938v48.375c0 3 .979 5.562 2.938 7.688 1.956 2.124 4.393 3.187 7.311 3.187zM383.625 61.125c0-2.5.438-4.832 1.312-7 .875-2.166 2.082-4.041 3.625-5.625 1.541-1.582 3.332-2.832 5.375-3.75 2.041-.916 4.27-1.375 6.688-1.375h4.25c2.332 0 4.541.459 6.625 1.375 2.082.918 3.916 2.168 5.5 3.75 1.582 1.584 2.812 3.459 3.688 5.625.875 2.168 1.312 4.5 1.312 7v4.125c0 3.5-.625 6.438-1.875 8.812s-2.959 4.312-5.125 5.812c-2.168 1.5-4.688 2.562-7.562 3.188s-5.938.938-9.188.938c-1.334 0-2.668-.041-4-.125-1.334-.082-2.709-.207-4.125-.375v7.5c.582 3.334 2.145 5.98 4.688 7.938 2.541 1.959 5.438 2.938 8.688 2.938.332 0 1.395-.188 3.188-.562l5.688-1.188c2.332-.5 4.916-1.082 7.75-1.75l1.5 6.625c-3.084.668-5.875 1.209-8.375 1.625-2.168.418-4.23.791-6.188 1.125-1.959.332-3.146.5-3.562.5-2.668 0-5.209-.48-7.625-1.438-2.418-.957-4.543-2.312-6.375-4.062-1.834-1.75-3.271-3.812-4.312-6.188-1.043-2.375-1.562-4.979-1.562-7.812v-27.626zm21.25 15.875h.25c1.5 0 2.875-.312 4.125-.938s2.332-1.457 3.25-2.5c.916-1.041 1.645-2.229 2.188-3.562.541-1.332.812-2.75.812-4.25v-5.25c0-2-.375-3.688-1.125-5.062s-1.73-2.479-2.938-3.312c-1.209-.832-2.625-1.438-4.25-1.812s-3.312-.562-5.062-.562c-1.584 0-3.105.25-4.562.75-1.459.5-2.73 1.209-3.812 2.125-1.084.918-1.959 2.043-2.625 3.375-.668 1.334-1 2.834-1 4.5v16.375l14.749.123zM367.376 47v-27.25h6.25v81.375s-1.912 2.204-5.5 3.875c-2.75 1.281-5.418 2-8.25 2.5-2.834.5-5.125.75-6.875.75-2.334 0-4.5-.459-6.5-1.375s-3.75-2.166-5.25-3.75c-1.5-1.582-2.688-3.457-3.562-5.625-.875-2.166-1.312-4.457-1.312-6.875v-29.5c0-2.416.438-4.688 1.312-6.812s2.062-4 3.562-5.625 3.25-2.895 5.25-3.812c2-.916 4.166-1.375 6.5-1.375 1.416 0 3.332.146 5.75.438 2.416.291 5.291 1.311 8.625 3.061zm-.125 50.375v-43.125c-2.918-1.916-5.668-3.125-8.25-3.625-2.584-.5-4.584-.75-6-.75-2.918 0-5.375 1.062-7.375 3.188s-3 4.688-3 7.688v30.375c0 1.5.27 2.896.812 4.188.541 1.293 1.27 2.418 2.188 3.375.916.959 2 1.73 3.25 2.312 1.25.584 2.582.875 4 .875.75 0 1.875-.104 3.375-.312 1.5-.207 3.02-.5 4.562-.875 1.541-.375 2.938-.832 4.188-1.375 1.25-.543 2-1.189 2.25-1.939z"/><polygon fill="#EF4B33" points="52.93,73.375 71.765,73.375 75.07,54.625 56.236,54.625"/><path fill="#EF4B33" d="M64 0c-35.346 0-64 28.653-64 64v64h64c35.346 0 64-28.654 64-64 0-35.347-28.654-64-64-64zm38.824 54.625h-21.504l-3.306 18.75h22.161l-1.102 6.25h-22.161l-4.077 23.125h-6.25l4.077-23.125h-18.834l-4.078 23.125h-6.25l4.078-23.125h-21.504l1.102-6.25h21.504l3.306-18.75h-22.162l1.102-6.25h22.162l4.077-23.125h6.25l-4.077 23.125h18.834l4.078-23.125h6.25l-4.078 23.125h21.503l-1.101 6.25z"/></svg>